<svg width="20" height="18" viewBox="0 0 20 18" fill="none" xmlns="http://www.w3.org/2000/svg">
<path d="M16.325 17.625H3.67505C2.06505 17.625 0.800049 16.36 0.800049 14.75V4.39999C0.800049 2.78999 2.06505 1.52499 3.67505 1.52499H16.325C17.935 1.52499 19.2 2.78999 19.2 4.39999V14.75C19.2 16.36 17.935 17.625 16.325 17.625ZM3.67505 2.67499C2.75505 2.67499 1.95005 3.47999 1.95005 4.39999V14.75C1.95005 15.67 2.75505 16.475 3.67505 16.475H16.325C17.245 16.475 18.05 15.67 18.05 14.75V4.39999C18.05 3.47999 17.245 2.67499 16.325 2.67499H3.67505Z" fill="#6097CB"/>
<path d="M6.55004 3.825C6.20504 3.825 5.97504 3.595 5.97504 3.25V0.95C5.97504 0.605 6.20504 0.375 6.55004 0.375C6.89504 0.375 7.12504 0.605 7.12504 0.95V3.25C7.12504 3.595 6.89504 3.825 6.55004 3.825Z" fill="#6097CB"/>
<path d="M13.4501 3.825C13.1051 3.825 12.8751 3.595 12.8751 3.25V0.95C12.8751 0.605 13.1051 0.375 13.4501 0.375C13.7951 0.375 14.0251 0.605 14.0251 0.95V3.25C14.0251 3.595 13.7951 3.825 13.4501 3.825Z" fill="#6097CB"/>
<path d="M18.0501 7.275H1.95006C1.60506 7.275 1.37506 7.045 1.37506 6.7C1.37506 6.355 1.60506 6.125 1.95006 6.125H18.0501C18.3951 6.125 18.6251 6.355 18.6251 6.7C18.6251 7.045 18.3951 7.275 18.0501 7.275Z" fill="#6097CB"/>
<path d="M4.82505 14.75C4.48005 14.75 4.25005 14.635 4.02005 14.405C3.79005 14.175 3.67505 13.83 3.67505 13.6C3.67505 13.255 3.79005 13.025 4.02005 12.795C4.48005 12.335 5.17005 12.335 5.63005 12.795C5.86005 13.025 5.97505 13.37 5.97505 13.6C5.97505 13.83 5.86005 14.175 5.63005 14.405C5.40005 14.635 5.17005 14.75 4.82505 14.75Z" fill="#6097CB"/>
<path d="M4.82505 11.3C4.48005 11.3 4.25005 11.185 4.02005 10.955C3.79005 10.725 3.67505 10.495 3.67505 10.15C3.67505 9.805 3.79005 9.575 4.02005 9.345C4.48005 8.885 5.17005 8.885 5.63005 9.345C5.86005 9.575 5.97505 9.92 5.97505 10.15C5.97505 10.38 5.86005 10.725 5.63005 10.955C5.40005 11.185 5.17005 11.3 4.82505 11.3Z" fill="#6097CB"/>
<path d="M8.27506 14.75C7.93006 14.75 7.70006 14.635 7.47006 14.405C7.24006 14.175 7.12506 13.83 7.12506 13.6C7.12506 13.37 7.24006 13.025 7.47006 12.795C7.93006 12.335 8.62006 12.335 9.08006 12.795C9.31006 13.025 9.42506 13.37 9.42506 13.6C9.42506 13.83 9.31006 14.175 9.08006 14.405C8.85006 14.635 8.62006 14.75 8.27506 14.75Z" fill="#6097CB"/>
<path d="M8.27506 11.3C7.93006 11.3 7.70006 11.185 7.47006 10.955C7.24006 10.725 7.12506 10.38 7.12506 10.15C7.12506 9.92 7.24006 9.575 7.47006 9.345C7.93006 8.885 8.62006 8.885 9.08006 9.345C9.31006 9.575 9.42506 9.92 9.42506 10.15C9.42506 10.38 9.31006 10.725 9.08006 10.955C8.85006 11.185 8.62006 11.3 8.27506 11.3Z" fill="#6097CB"/>
<path d="M11.7251 14.75C11.3801 14.75 11.1501 14.635 10.9201 14.405C10.6901 14.175 10.5751 13.83 10.5751 13.6C10.5751 13.37 10.6901 13.025 10.9201 12.795C11.3801 12.335 12.0701 12.335 12.5301 12.795C12.7601 13.025 12.8751 13.255 12.8751 13.6C12.8751 13.945 12.7601 14.175 12.5301 14.405C12.3001 14.635 12.0701 14.75 11.7251 14.75Z" fill="#6097CB"/>
<path d="M11.7251 11.3C11.3801 11.3 11.1501 11.185 10.9201 10.955C10.6901 10.725 10.5751 10.38 10.5751 10.15C10.5751 9.92 10.6901 9.575 10.9201 9.345C11.3801 8.885 12.0701 8.885 12.5301 9.345C12.7601 9.575 12.8751 9.92 12.8751 10.15C12.8751 10.495 12.7601 10.725 12.5301 10.955C12.3001 11.185 12.0701 11.3 11.7251 11.3Z" fill="#6097CB"/>
<path d="M15.175 14.75C14.83 14.75 14.6 14.635 14.37 14.405C14.14 14.175 14.025 13.83 14.025 13.6C14.025 13.255 14.14 13.025 14.37 12.795C14.83 12.335 15.52 12.335 15.98 12.795C16.21 13.025 16.325 13.37 16.325 13.6C16.325 13.83 16.21 14.175 15.98 14.405C15.75 14.635 15.52 14.75 15.175 14.75Z" fill="#6097CB"/>
<path d="M15.175 11.3C14.83 11.3 14.6 11.185 14.37 10.955C14.14 10.725 14.025 10.38 14.025 10.15C14.025 9.92 14.14 9.575 14.37 9.345C14.83 8.885 15.52 8.885 15.98 9.345C16.21 9.575 16.325 9.92 16.325 10.15C16.325 10.495 16.21 10.725 15.98 10.955C15.75 11.185 15.52 11.3 15.175 11.3Z" fill="#6097CB"/>
</svg>
