<svg width="75" height="75" viewBox="0 0 75 75" fill="none" xmlns="http://www.w3.org/2000/svg">
    <g clip-path="url(#clip0_6_1328)">
    <path d="M29.625 30.5625H25.875C25.3125 30.5625 24.9375 30.1875 24.9375 29.625V25.875C24.9375 25.3125 25.3125 24.9375 25.875 24.9375H29.625C30.1875 24.9375 30.5625 25.3125 30.5625 25.875V29.625C30.5625 30.1875 30.1875 30.5625 29.625 30.5625ZM26.8125 28.6875H28.6875V26.8125H26.8125V28.6875Z" fill="#FAFAFA"/>
    <path d="M39 30.5625H35.25C34.6875 30.5625 34.3125 30.1875 34.3125 29.625V25.875C34.3125 25.3125 34.6875 24.9375 35.25 24.9375H39C39.5625 24.9375 39.9375 25.3125 39.9375 25.875V29.625C39.9375 30.1875 39.5625 30.5625 39 30.5625ZM36.1875 28.6875H38.0625V26.8125H36.1875V28.6875Z" fill="#FAFAFA"/>
    <path d="M48.375 30.5625H44.625C44.0625 30.5625 43.6875 30.1875 43.6875 29.625V25.875C43.6875 25.3125 44.0625 24.9375 44.625 24.9375H48.375C48.9375 24.9375 49.3125 25.3125 49.3125 25.875V29.625C49.3125 30.1875 48.9375 30.5625 48.375 30.5625ZM45.5625 28.6875H47.4375V26.8125H45.5625V28.6875Z" fill="#FAFAFA"/>
    <path d="M29.625 39.9375H25.875C25.3125 39.9375 24.9375 39.5625 24.9375 39V35.25C24.9375 34.6875 25.3125 34.3125 25.875 34.3125H29.625C30.1875 34.3125 30.5625 34.6875 30.5625 35.25V39C30.5625 39.5625 30.1875 39.9375 29.625 39.9375ZM26.8125 38.0625H28.6875V36.1875H26.8125V38.0625Z" fill="#FAFAFA"/>
    <path d="M39 39.9375H35.25C34.6875 39.9375 34.3125 39.5625 34.3125 39V35.25C34.3125 34.6875 34.6875 34.3125 35.25 34.3125H39C39.5625 34.3125 39.9375 34.6875 39.9375 35.25V39C39.9375 39.5625 39.5625 39.9375 39 39.9375ZM36.1875 38.0625H38.0625V36.1875H36.1875V38.0625Z" fill="#FAFAFA"/>
    <path d="M48.375 39.9375H44.625C44.0625 39.9375 43.6875 39.5625 43.6875 39V35.25C43.6875 34.6875 44.0625 34.3125 44.625 34.3125H48.375C48.9375 34.3125 49.3125 34.6875 49.3125 35.25V39C49.3125 39.5625 48.9375 39.9375 48.375 39.9375ZM45.5625 38.0625H47.4375V36.1875H45.5625V38.0625Z" fill="#FAFAFA"/>
    <path d="M29.625 49.3125H25.875C25.3125 49.3125 24.9375 48.9375 24.9375 48.375V44.625C24.9375 44.0625 25.3125 43.6875 25.875 43.6875H29.625C30.1875 43.6875 30.5625 44.0625 30.5625 44.625V48.375C30.5625 48.9375 30.1875 49.3125 29.625 49.3125ZM26.8125 47.4375H28.6875V45.5625H26.8125V47.4375Z" fill="#FAFAFA"/>
    <path d="M39 49.3125H35.25C34.6875 49.3125 34.3125 48.9375 34.3125 48.375V44.625C34.3125 44.0625 34.6875 43.6875 35.25 43.6875H39C39.5625 43.6875 39.9375 44.0625 39.9375 44.625V48.375C39.9375 48.9375 39.5625 49.3125 39 49.3125ZM36.1875 47.4375H38.0625V45.5625H36.1875V47.4375Z" fill="#FAFAFA"/>
    <path d="M46.5 50.0625C46.3125 50.0625 45.9375 49.875 45.75 49.875L43.125 47.0625C42.75 46.6875 42.75 46.125 43.125 45.75L45.75 43.125C46.125 42.75 46.6875 42.75 47.0625 43.125L49.6875 45.75C50.0625 46.125 50.0625 46.6875 49.6875 47.0625L47.0625 49.6875C47.0625 50.0625 46.6875 50.0625 46.5 50.0625ZM45.1875 46.5L46.5 47.8125L47.8125 46.5L46.5 45.1875L45.1875 46.5Z" fill="#FAFAFA"/>
    </g>
    <defs>
    <clipPath id="clip0_6_1328">
    <rect width="75" height="75" fill="white"/>
    </clipPath>
    </defs>
    </svg>
    