<svg width="17" height="16" viewBox="0 0 17 16" fill="none" xmlns="http://www.w3.org/2000/svg">
    <path d="M8.4751 9.79995C8.1751 9.79995 7.9751 9.59995 7.9751 9.29995V5.69995C7.9751 5.39995 8.1751 5.19995 8.4751 5.19995C8.7751 5.19995 8.9751 5.39995 8.9751 5.69995V9.29995C8.9751 9.59995 8.7751 9.79995 8.4751 9.79995Z" fill="#DC2626"/>
    <path d="M8.4751 12.3999C8.3751 12.3999 8.1751 12.3999 8.0751 12.2999C7.9751 12.1999 7.9751 12.0999 7.9751 11.8999C7.9751 11.7999 7.9751 11.5999 8.0751 11.4999C8.2751 11.2999 8.5751 11.2999 8.7751 11.4999C8.8751 11.5999 8.8751 11.6999 8.8751 11.8999C8.8751 11.9999 8.7751 12.1999 8.6751 12.2999C8.7751 12.3999 8.5751 12.3999 8.4751 12.3999Z" fill="#DC2626"/>
    <path d="M14.375 15.5H2.575C1.675 15.5 0.775 15 0.375 14.2C-0.125 13.4 -0.125 12.4 0.375 11.6L6.275 1.3C6.775 0.5 7.575 0 8.475 0C9.375 0 10.275 0.5 10.675 1.3L16.575 11.6C17.075 12.4 17.075 13.4 16.575 14.2C16.175 15 15.375 15.5 14.375 15.5ZM8.475 1.1C7.875 1.1 7.375 1.4 7.175 1.9L1.275 12.2C0.975001 12.7 0.975001 13.3 1.275 13.8C1.575 14.3 2.075 14.6 2.575 14.6H14.475C15.075 14.6 15.575 14.3 15.775 13.8C16.075 13.3 16.075 12.7 15.775 12.2L9.875 1.9C9.575 1.4 9.075 1.1 8.475 1.1Z" fill="#DC2626"/>
    </svg>
    