<svg width="6" height="24" viewBox="0 0 6 24" fill="none" xmlns="http://www.w3.org/2000/svg">
    <path
        d="M0.727273 2.75C0.727273 2.09091 0.957386 1.52557 1.41761 1.05398C1.88352 0.588067 2.44886 0.357954 3.11364 0.363635C3.76136 0.357954 4.31534 0.588067 4.77557 1.05398C5.2358 1.52557 5.46591 2.09091 5.46591 2.75C5.46591 3.375 5.2358 3.92614 4.77557 4.40341C4.31534 4.88636 3.76136 5.13068 3.11364 5.13636C2.67045 5.13068 2.26705 5.0142 1.90341 4.78693C1.54545 4.56534 1.25852 4.27557 1.04261 3.91761C0.832386 3.55966 0.727273 3.17045 0.727273 2.75ZM0.727272 12.17C0.727272 11.5109 0.957386 10.9456 1.41761 10.474C1.88352 10.0081 2.44886 9.77795 3.11364 9.78364C3.76136 9.77795 4.31534 10.0081 4.77557 10.474C5.23579 10.9456 5.46591 11.5109 5.46591 12.17C5.46591 12.795 5.23579 13.3461 4.77557 13.8234C4.31534 14.3064 3.76136 14.5507 3.11364 14.5564C2.67045 14.5507 2.26704 14.4342 1.90341 14.2069C1.54545 13.9853 1.25852 13.6956 1.04261 13.3376C0.832386 12.9797 0.727272 12.5905 0.727272 12.17ZM0.727272 21.59C0.727272 20.9309 0.957385 20.3656 1.41761 19.894C1.88352 19.4281 2.44886 19.198 3.11364 19.2036C3.76136 19.198 4.31534 19.4281 4.77557 19.894C5.23579 20.3656 5.46591 20.9309 5.46591 21.59C5.46591 22.215 5.23579 22.7661 4.77557 23.2434C4.31534 23.7264 3.76136 23.9707 3.11364 23.9764C2.67045 23.9707 2.26704 23.8542 1.90341 23.6269C1.54545 23.4053 1.25852 23.1156 1.04261 22.7576C0.832385 22.3997 0.727272 22.0105 0.727272 21.59Z"
        fill="#6097CB" />
</svg>