<svg width="20" height="17" viewBox="0 0 20 17" fill="none" xmlns="http://www.w3.org/2000/svg">
    <path d="M10 16.125C9.87501 16.125 9.75001 16.125 9.62501 16.125C8.50001 15.875 4.50001 14.625 1.37501 9.75C-0.12499 7.5 8.85129e-06 4.5 1.75001 2.5C2.87501 1.25 4.50001 0.5 6.12501 0.5C7.50001 0.5 8.87501 0.999999 10 1.875C11.125 0.999999 12.375 0.5 13.875 0.5C15.625 0.5 17.125 1.25 18.25 2.5C20 4.375 20.125 7.375 18.625 9.75C15.5 14.625 11.5 15.875 10.375 16.125C10.25 16 10.125 16.125 10 16.125ZM6.12501 1.625C4.75001 1.625 3.50001 2.25 2.62501 3.25C1.25001 4.75 1.12501 7.125 2.37501 9C5.25001 13.5 8.87501 14.625 9.87501 14.875H10H10.125C11.125 14.625 14.75 13.5 17.625 9C18.75 7.125 18.75 4.75 17.375 3.25C16.5 2.25 15.25 1.625 13.875 1.625C12.625 1.625 11.5 2.125 10.625 3L10.5 3.125C10.25 3.375 9.87501 3.375 9.62501 3.125L9.50001 3C8.62501 2.125 7.37501 1.625 6.12501 1.625Z" fill="#cc2323"/>
    </svg>
    