<svg width="75" height="75" viewBox="0 0 75 75" fill="none" xmlns="http://www.w3.org/2000/svg">
    <path d="M37.5 51.1875C37.3125 51.1875 37.125 51.1875 36.9375 51.1875C35.25 50.8125 29.25 48.9375 24.5625 41.625C22.3125 38.25 22.5 33.75 25.125 30.75C26.8125 28.875 29.25 27.75 31.6875 27.75C33.75 27.75 35.8125 28.5 37.5 29.8125C39.1875 28.5 41.0625 27.75 43.3125 27.75C45.9375 27.75 48.1875 28.875 49.875 30.75C52.5 33.5625 52.6875 38.0625 50.4375 41.625C45.75 48.9375 39.75 50.8125 38.0625 51.1875C37.875 51 37.6875 51.1875 37.5 51.1875ZM31.6875 29.4375C29.625 29.4375 27.75 30.375 26.4375 31.875C24.375 34.125 24.1875 37.6875 26.0625 40.5C30.375 47.25 35.8125 48.9375 37.3125 49.3125H37.5H37.6875C39.1875 48.9375 44.625 47.25 48.9375 40.5C50.625 37.6875 50.625 34.125 48.5625 31.875C47.25 30.375 45.375 29.4375 43.3125 29.4375C41.4375 29.4375 39.75 30.1875 38.4375 31.5L38.25 31.6875C37.875 32.0625 37.3125 32.0625 36.9375 31.6875L36.75 31.5C35.4375 30.1875 33.5625 29.4375 31.6875 29.4375Z" fill="#FAFAFA"/>
    </svg>
    