<svg width="29" height="29" viewBox="0 0 29 29" fill="none" xmlns="http://www.w3.org/2000/svg">
	<path d="M14.0625 28.125C10.3125 28.125 6.75 26.625 4.125 24C1.5 21.375 0 17.8125 0 14.0625C0 10.3125 1.5 6.75 4.125 4.125C6.75 1.5 10.3125 0 14.0625 0C14.4375 0 14.8125 0.1875 15 0.5625C15.1875 0.9375 15.1875 1.3125 15 1.5C12.75 4.875 13.3125 9.375 16.125 12.1875C17.625 13.875 19.875 14.625 22.125 14.625C23.8125 14.625 25.3125 14.0625 26.8125 13.3125C27.1875 13.125 27.375 13.125 27.75 13.3125C28.125 13.5 28.3125 13.875 28.3125 14.0625C28.3125 17.8125 26.8125 21.375 24.1875 24.1875C21.375 26.625 17.8125 28.125 14.0625 28.125ZM12.5625 2.0625C9.75 2.4375 7.3125 3.5625 5.4375 5.4375C3.1875 7.6875 1.875 10.875 1.875 14.0625C1.875 17.25 3.1875 20.4375 5.4375 22.6875C7.6875 24.9375 10.875 26.25 14.0625 26.25C17.25 26.25 20.4375 24.9375 22.6875 22.6875C24.5625 20.8125 25.875 18.1875 26.25 15.5625C24.9375 16.125 23.625 16.5 22.125 16.5C19.3125 16.5 16.6875 15.375 14.8125 13.5C11.625 10.3125 10.875 5.8125 12.5625 2.0625Z" fill="white"/>
	</svg>
	
