<svg width="40" height="40" viewBox="0 0 40 40" fill="none" xmlns="http://www.w3.org/2000/svg">
    <path d="M20 27.5C18 27.5 16.1 26.7 14.7 25.3C13.3 23.9 12.5 22 12.5 20C12.5 18 13.3 16.1 14.7 14.7C16.1 13.3 18 12.5 20 12.5C20.2 12.5 20.4 12.6 20.5 12.8C20.6 13 20.6 13.2 20.5 13.3C19.3 15.1 19.6 17.5 21.1 19C21.9 19.9 23.1 20.3 24.3 20.3C25.2 20.3 26 20 26.8 19.6C27 19.5 27.1 19.5 27.3 19.6C27.5 19.7 27.6 19.9 27.6 20C27.6 22 26.8 23.9 25.4 25.4C23.9 26.7 22 27.5 20 27.5ZM19.2 13.6C17.7 13.8 16.4 14.4 15.4 15.4C14.2 16.6 13.5 18.3 13.5 20C13.5 21.7 14.2 23.4 15.4 24.6C16.6 25.8 18.3 26.5 20 26.5C21.7 26.5 23.4 25.8 24.6 24.6C25.6 23.6 26.3 22.2 26.5 20.8C25.8 21.1 25.1 21.3 24.3 21.3C22.8 21.3 21.4 20.7 20.4 19.7C18.7 18 18.3 15.6 19.2 13.6Z" fill="#FAFAFA"/>
    </svg>
    