<svg width="31" height="31" viewBox="0 0 31 31" fill="none" xmlns="http://www.w3.org/2000/svg">
<path d="M15.5 23.7059C10.9412 23.7059 7.29413 20.0588 7.29413 15.5C7.29413 10.9412 10.9412 7.2941 15.5 7.2941C20.0588 7.2941 23.7059 10.9412 23.7059 15.5C23.7059 20.0588 20.0588 23.7059 15.5 23.7059ZM15.5 9.11763C12.0353 9.11763 9.11766 12.0353 9.11766 15.5C9.11766 18.9647 12.0353 21.8823 15.5 21.8823C18.9647 21.8823 21.8824 18.9647 21.8824 15.5C21.8824 12.0353 18.9647 9.11763 15.5 9.11763Z" fill="white"/>
<path d="M15.5 3.64706C14.9529 3.64706 14.5882 3.28235 14.5882 2.73529V0.911765C14.5882 0.364706 14.9529 0 15.5 0C16.047 0 16.4117 0.364706 16.4117 0.911765V2.73529C16.4117 3.28235 16.047 3.64706 15.5 3.64706Z" fill="white"/>
<path d="M15.5 31C14.9529 31 14.5882 30.6353 14.5882 30.0882V28.2647C14.5882 27.7176 14.9529 27.3529 15.5 27.3529C16.047 27.3529 16.4117 27.7176 16.4117 28.2647V30.0882C16.4117 30.6353 16.047 31 15.5 31Z" fill="white"/>
<path d="M30.0883 16.4118H28.2647C27.7177 16.4118 27.353 16.047 27.353 15.5C27.353 14.9529 27.7177 14.5882 28.2647 14.5882H30.0883C30.6353 14.5882 31 14.9529 31 15.5C31 16.047 30.6353 16.4118 30.0883 16.4118Z" fill="white"/>
<path d="M2.73529 16.4118H0.911765C0.364706 16.4118 0 16.047 0 15.5C0 14.9529 0.364706 14.5882 0.911765 14.5882H2.73529C3.28235 14.5882 3.64706 14.9529 3.64706 15.5C3.64706 16.047 3.28235 16.4118 2.73529 16.4118Z" fill="white"/>
<path d="M24.6177 7.2941C24.4353 7.2941 24.0706 7.2941 23.8882 7.11175C23.5235 6.74704 23.5235 6.19998 23.8882 5.83528L25.1647 4.55881C25.5294 4.1941 26.0765 4.1941 26.4412 4.55881C26.8059 4.92351 26.8059 5.47057 26.4412 5.83528L25.1647 7.11175C24.9824 7.2941 24.8 7.2941 24.6177 7.2941Z" fill="white"/>
<path d="M5.10591 26.8059C4.92356 26.8059 4.55885 26.8059 4.3765 26.6236C4.01179 26.2589 4.01179 25.7118 4.3765 25.3471L5.65297 24.0706C6.01767 23.7059 6.56473 23.7059 6.92944 24.0706C7.29414 24.4353 7.29414 24.9824 6.92944 25.3471L5.83532 26.4412C5.65297 26.6236 5.47061 26.8059 5.10591 26.8059Z" fill="white"/>
<path d="M25.894 26.8059C25.7116 26.8059 25.3469 26.8059 25.1646 26.6236L23.8881 25.3471C23.5234 24.9824 23.5234 24.4353 23.8881 24.0706C24.2528 23.7059 24.7999 23.7059 25.1646 24.0706L26.441 25.3471C26.8057 25.7118 26.8057 26.2589 26.441 26.6236C26.2587 26.6236 26.0763 26.8059 25.894 26.8059Z" fill="white"/>
<path d="M6.38231 7.2941C6.19995 7.2941 5.83525 7.2941 5.6529 7.11175L4.55878 5.83528C4.19407 5.47057 4.19407 4.92351 4.55878 4.55881C4.92348 4.1941 5.47054 4.1941 5.83525 4.55881L7.11172 5.83528C7.47642 6.19998 7.47642 6.74704 7.11172 7.11175C6.92936 7.2941 6.74701 7.2941 6.38231 7.2941Z" fill="white"/>
</svg>
