<svg width="40" height="40" viewBox="0 0 40 40" fill="none" xmlns="http://www.w3.org/2000/svg">
<path d="M20 24.5C17.5 24.5 15.5 22.5 15.5 20C15.5 17.5 17.5 15.5 20 15.5C22.5 15.5 24.5 17.5 24.5 20C24.5 22.5 22.5 24.5 20 24.5ZM20 16.5C18.1 16.5 16.5 18.1 16.5 20C16.5 21.9 18.1 23.5 20 23.5C21.9 23.5 23.5 21.9 23.5 20C23.5 18.1 21.9 16.5 20 16.5Z" fill="#28292E"/>
<path d="M20 13.5C19.7 13.5 19.5 13.3 19.5 13V12C19.5 11.7 19.7 11.5 20 11.5C20.3 11.5 20.5 11.7 20.5 12V13C20.5 13.3 20.3 13.5 20 13.5Z" fill="#28292E"/>
<path d="M20 28.5C19.7 28.5 19.5 28.3 19.5 28V27C19.5 26.7 19.7 26.5 20 26.5C20.3 26.5 20.5 26.7 20.5 27V28C20.5 28.3 20.3 28.5 20 28.5Z" fill="#28292E"/>
<path d="M28 20.5H27C26.7 20.5 26.5 20.3 26.5 20C26.5 19.7 26.7 19.5 27 19.5H28C28.3 19.5 28.5 19.7 28.5 20C28.5 20.3 28.3 20.5 28 20.5Z" fill="#28292E"/>
<path d="M13 20.5H12C11.7 20.5 11.5 20.3 11.5 20C11.5 19.7 11.7 19.5 12 19.5H13C13.3 19.5 13.5 19.7 13.5 20C13.5 20.3 13.3 20.5 13 20.5Z" fill="#28292E"/>
<path d="M25 15.5001C24.9 15.5001 24.7 15.5001 24.6 15.4001C24.4 15.2001 24.4 14.9001 24.6 14.7001L25.3 14.0001C25.5 13.8001 25.8 13.8001 26 14.0001C26.2 14.2001 26.2 14.5001 26 14.7001L25.3 15.4001C25.2 15.5001 25.1 15.5001 25 15.5001Z" fill="#28292E"/>
<path d="M14.3 26.2C14.2 26.2 14 26.2 13.9 26.1C13.7 25.9 13.7 25.6 13.9 25.4L14.6 24.7C14.8 24.5 15.1 24.5 15.3 24.7C15.5 24.9 15.5 25.2 15.3 25.4L14.7 26C14.6 26.1 14.5 26.2 14.3 26.2Z" fill="#28292E"/>
<path d="M25.7 26.2C25.6 26.2 25.4 26.2 25.3 26.1L24.6 25.4C24.4 25.2 24.4 24.9 24.6 24.7C24.8 24.5 25.1 24.5 25.3 24.7L26 25.4C26.2 25.6 26.2 25.9 26 26.1C25.9 26.1 25.8 26.2 25.7 26.2Z" fill="#28292E"/>
<path d="M15 15.5001C14.9 15.5001 14.7 15.5001 14.6 15.4001L14 14.7001C13.8 14.5001 13.8 14.2001 14 14.0001C14.2 13.8001 14.5 13.8001 14.7 14.0001L15.4 14.7001C15.6 14.9001 15.6 15.2001 15.4 15.4001C15.3 15.5001 15.2 15.5001 15 15.5001Z" fill="#28292E"/>
</svg>
