<svg width="75" height="75" viewBox="0 0 75 75" fill="none" xmlns="http://www.w3.org/2000/svg">
    <path d="M45.9375 53.4375H29.0625C26.4375 53.4375 24.375 51.375 24.375 48.75V26.25C24.375 23.625 26.4375 21.5625 29.0625 21.5625H45.9375C48.5625 21.5625 50.625 23.625 50.625 26.25V48.75C50.625 51.375 48.5625 53.4375 45.9375 53.4375ZM29.0625 23.4375C27.5625 23.4375 26.25 24.75 26.25 26.25V48.75C26.25 50.25 27.5625 51.5625 29.0625 51.5625H45.9375C47.4375 51.5625 48.75 50.25 48.75 48.75V26.25C48.75 24.75 47.4375 23.4375 45.9375 23.4375H29.0625Z" fill="#28292E"/>
    <path d="M43.125 30.9375H31.875C31.3125 30.9375 30.9375 30.5625 30.9375 30C30.9375 29.4375 31.3125 29.0625 31.875 29.0625H43.125C43.6875 29.0625 44.0625 29.4375 44.0625 30C44.0625 30.5625 43.6875 30.9375 43.125 30.9375Z" fill="#28292E"/>
    <path d="M43.125 38.4375H31.875C31.3125 38.4375 30.9375 38.0625 30.9375 37.5C30.9375 36.9375 31.3125 36.5625 31.875 36.5625H43.125C43.6875 36.5625 44.0625 36.9375 44.0625 37.5C44.0625 38.0625 43.6875 38.4375 43.125 38.4375Z" fill="#28292E"/>
    <path d="M43.125 45.9375H31.875C31.3125 45.9375 30.9375 45.5625 30.9375 45C30.9375 44.4375 31.3125 44.0625 31.875 44.0625H43.125C43.6875 44.0625 44.0625 44.4375 44.0625 45C44.0625 45.5625 43.6875 45.9375 43.125 45.9375Z" fill="#28292E"/>
    </svg>
    