<svg width="20" height="22" viewBox="0 0 20 22" fill="none" xmlns="http://www.w3.org/2000/svg">
    <path
        d="M18.75 9.125H1.25C0.875 9.125 0.625 8.875 0.625 8.5V6C0.625 5 1.5 4.125 2.5 4.125H17.5C18.5 4.125 19.375 5 19.375 6V8.5C19.375 8.75 19.125 9.125 18.75 9.125ZM1.875 7.875H18.125V6C18.125 5.625 17.875 5.375 17.5 5.375H2.5C2.125 5.375 1.875 5.625 1.875 6V7.875Z"
        fill="#E43232" />
    <path
        d="M15 21.625H5C3.25 21.625 1.875 20.25 1.875 18.5V8.5C1.875 8.125 2.125 7.875 2.5 7.875C2.875 7.875 3.125 8.125 3.125 8.5V18.5C3.125 19.5 4 20.375 5 20.375H15C16 20.375 16.875 19.5 16.875 18.5V8.5C16.875 8.125 17.125 7.875 17.5 7.875C17.875 7.875 18.125 8.125 18.125 8.5V18.5C18.125 20.25 16.75 21.625 15 21.625Z"
        fill="#E43232" />
    <path
        d="M13.125 4.75H11.875V2.25C11.875 1.875 11.625 1.625 11.25 1.625H8.75C8.375 1.625 8.125 1.875 8.125 2.25V4.75H6.875V2.25C6.875 1.25 7.75 0.375 8.75 0.375H11.25C12.25 0.375 13.125 1.25 13.125 2.25V4.75Z"
        fill="#E43232" />
    <path
        d="M6.25 17.875C5.875 17.875 5.625 17.625 5.625 17.25V12.25C5.625 11.875 5.875 11.625 6.25 11.625C6.625 11.625 6.875 11.875 6.875 12.25V17.25C6.875 17.625 6.625 17.875 6.25 17.875Z"
        fill="#E43232" />
    <path
        d="M10 17.875C9.625 17.875 9.375 17.625 9.375 17.25V12.25C9.375 11.875 9.625 11.625 10 11.625C10.375 11.625 10.625 11.875 10.625 12.25V17.25C10.625 17.625 10.375 17.875 10 17.875Z"
        fill="#E43232" />
    <path
        d="M13.75 17.875C13.375 17.875 13.125 17.625 13.125 17.25V12.25C13.125 11.875 13.375 11.625 13.75 11.625C14.125 11.625 14.375 11.875 14.375 12.25V17.25C14.375 17.625 14.125 17.875 13.75 17.875Z"
        fill="#E43232" />
</svg>
    