<svg width="14" height="17" viewBox="0 0 14 17" fill="none" xmlns="http://www.w3.org/2000/svg">
    <path d="M7.19995 9.6001C4.99995 9.6001 3.19995 7.6001 3.19995 5.1001C3.19995 2.6001 4.99995 0.600098 7.19995 0.600098C9.39995 0.600098 11.2 2.6001 11.2 5.1001C11.2 7.6001 9.39995 9.6001 7.19995 9.6001ZM7.19995 1.6001C5.49995 1.6001 4.19995 3.2001 4.19995 5.1001C4.19995 7.0001 5.49995 8.6001 7.19995 8.6001C8.89995 8.6001 10.2 7.0001 10.2 5.1001C10.2 3.2001 8.89995 1.6001 7.19995 1.6001Z" fill="#E43232"/>
    <path d="M13.2 16.4001C12.9 16.4001 12.7 16.2001 12.7 15.9001V12.5001C12.7 10.6001 11.2 9.1001 9.3 9.1001H9C8.7 9.1001 8.5 8.9001 8.5 8.6001C8.5 8.3001 8.7 8.1001 9 8.1001H9.4C11.8 8.1001 13.8 10.1001 13.8 12.5001V15.9001C13.7 16.2001 13.5 16.4001 13.2 16.4001Z" fill="#E43232"/>
    <path d="M1.19995 16.4001C0.899951 16.4001 0.699951 16.2001 0.699951 15.9001V12.5001C0.699951 10.1001 2.69995 8.1001 5.09995 8.1001H5.49995C5.79995 8.1001 5.99995 8.3001 5.99995 8.6001C5.99995 8.9001 5.79995 9.1001 5.49995 9.1001H5.09995C3.19995 9.1001 1.69995 10.6001 1.69995 12.5001V15.9001C1.69995 16.2001 1.49995 16.4001 1.19995 16.4001Z" fill="#E43232"/>
    </svg>
    