<svg width="50" height="50" viewBox="0 0 50 50" fill="none" xmlns="http://www.w3.org/2000/svg">
    <rect width="50" height="50" fill="#1A1A1A"/>
    <path d="M25.25 25.75C22.5 25.75 20.25 23.25 20.25 20.125C20.25 17 22.5 14.5 25.25 14.5C28 14.5 30.25 17 30.25 20.125C30.25 23.25 28 25.75 25.25 25.75ZM25.25 15.75C23.125 15.75 21.5 17.75 21.5 20.125C21.5 22.5 23.125 24.5 25.25 24.5C27.375 24.5 29 22.5 29 20.125C29 17.75 27.375 15.75 25.25 15.75Z" fill="#FAFAFA"/>
    <path d="M32.75 34.25C32.375 34.25 32.125 34 32.125 33.625V29.375C32.125 27 30.25 25.125 27.875 25.125H27.5C27.125 25.125 26.875 24.875 26.875 24.5C26.875 24.125 27.125 23.875 27.5 23.875H28C31 23.875 33.5 26.375 33.5 29.375V33.625C33.375 34 33.125 34.25 32.75 34.25Z" fill="#FAFAFA"/>
    <path d="M17.75 34.25C17.375 34.25 17.125 34 17.125 33.625V29.375C17.125 26.375 19.625 23.875 22.625 23.875H23.125C23.5 23.875 23.75 24.125 23.75 24.5C23.75 24.875 23.5 25.125 23.125 25.125H22.625C20.25 25.125 18.375 27 18.375 29.375V33.625C18.375 34 18.125 34.25 17.75 34.25Z" fill="#FAFAFA"/>
    </svg>
    